<svg xmlns="http://www.w3.org/2000/svg" xmlns:xlink="http://www.w3.org/1999/xlink" width="163.976" height="59.832" viewBox="0 0 163.976 59.832"><defs><style>.a{fill:none;}.b{fill:#313415;}.c{fill:#0092a0;}.d{clip-path:url(#a);}.e{fill:url(#b);}.f{fill:#00852a;}</style><clipPath id="a"><path class="a" d="M474.934,345.383l-.087-.156a.485.485,0,0,0-.086-.1Z" transform="translate(-474.761 -345.129)"/></clipPath><linearGradient id="b" x1="-1105.68" y1="555.059" x2="-1103.36" y2="555.059" gradientUnits="objectBoundingBox"><stop offset="0" stop-color="#025b5b"/><stop offset="0.109" stop-color="#025b5b"/><stop offset="0.547" stop-color="#349980"/><stop offset="1" stop-color="#349980"/></linearGradient></defs><g transform="translate(-115.069 -257.25)"><path class="b" d="M127.748,351.419h5.239v-17.74h-5.652v2.038c0,1.442.077,3.568.228,6.318a.275.275,0,0,1-.187.277.269.269,0,0,1-.314-.109c-.726-1.108-2.112-3.182-3.231-4.624l-3.063-3.9H115.5v17.74h5.651v-2.038c0-2.112-.142-4.814-.227-6.238a.273.273,0,0,1,.5-.172c.722,1.083,2.1,3.112,3.23,4.553Z" transform="translate(-0.256 -45.518)"/><path class="b" d="M166.3,351.419H180v-4.4l-7.207.178a.282.282,0,0,1-.2-.079.278.278,0,0,1-.083-.2V344.79a.279.279,0,0,1,.082-.2.271.271,0,0,1,.2-.079l5.835.123v-4.209l-5.835.121a.3.3,0,0,1-.2-.08.279.279,0,0,1-.082-.2v-2.088a.28.28,0,0,1,.083-.2.277.277,0,0,1,.2-.078l6.962.172v-4.4H166.3Z" transform="translate(-30.512 -45.518)"/><path class="b" d="M207.538,351.1h6.2l1.709-6.765c.186-.726.461-2.19.753-4.016a.274.274,0,0,1,.27-.233h.1a.275.275,0,0,1,.269.229c.328,1.864.615,3.291.81,4.016l1.828,6.764h6.171l4.715-17.735H224.59l-1.213,5.724a33.671,33.671,0,0,0-.554,4.672.275.275,0,0,1-.273.258.318.318,0,0,1-.315-.254,45.615,45.615,0,0,0-.582-4.738l-1.1-5.663h-7.036l-1.471,5.764a31.426,31.426,0,0,0-.747,4.846.274.274,0,0,1-.273.251h-.072a.275.275,0,0,1-.273-.255c-.108-1.4-.29-3.379-.545-4.8l-.973-6.017-6.365.472Z" transform="translate(-52.247 -45.204)"/><path class="b" d="M274.828,351.419h13.7v-4.4l-7.208.178a.276.276,0,0,1-.28-.277v-2.128a.277.277,0,0,1,.082-.2.286.286,0,0,1,.2-.079l5.835.123v-4.209l-5.835.121a.321.321,0,0,1-.2-.08.277.277,0,0,1-.082-.2V338.18a.279.279,0,0,1,.083-.2.272.272,0,0,1,.2-.078l6.963.172v-4.4h-13.45Z" transform="translate(-95.145 -45.518)"/><path class="b" d="M327.314,351.419h5.239v-17.74H326.9v2.038c0,1.442.077,3.568.228,6.318a.275.275,0,0,1-.187.277.27.27,0,0,1-.315-.109c-.726-1.108-2.112-3.182-3.23-4.624l-3.062-3.9h-5.266v17.74h5.652v-2.038c0-2.112-.142-4.814-.228-6.238a.274.274,0,0,1,.5-.172c.723,1.083,2.1,3.112,3.23,4.553Z" transform="translate(-119.11 -45.518)"/><path class="b" d="M164.442,272h-8.423l-6.709,20.656h7.733l.667-3.023a.268.268,0,0,1,.278-.218l4.591.135a.277.277,0,0,1,.262.216l.643,2.889h7.667ZM158.8,284.866l1.139-5.546c.113-.546.217-1.088.314-1.621.1.519.21,1.047.326,1.578l1.2,5.542Z" transform="translate(-20.39 -8.785)"/><path class="b" d="M203.275,292.657h7.362V278.165a.276.276,0,0,1,.082-.2.215.215,0,0,1,.2-.08l5.8.057V272H197.224v5.749l5.777.058a.276.276,0,0,1,.274.277Z" transform="translate(-48.926 -8.786)"/><path class="b" d="M251.88,272v11.086c0,4.5,1.713,9.857,9.878,9.857,8.234,0,9.963-5.36,9.963-9.857V272h-7.362v11.086c0,1.864-.31,3.59-2.562,3.59-2.357,0-2.555-1.853-2.555-3.59V272Z" transform="translate(-81.478 -8.786)"/><path class="b" d="M321.945,292.657h6.2V272h-6.712v2.407c0,1.671.09,4.137.267,7.327a.277.277,0,0,1-.19.277.274.274,0,0,1-.317-.11c-.848-1.28-2.467-3.68-3.787-5.364l-3.6-4.538h-6.236v20.655h6.711v-2.4c0-2.44-.167-5.58-.267-7.235a.277.277,0,0,1,.506-.171c.846,1.253,2.461,3.6,3.787,5.281Z" transform="translate(-114.646 -8.786)"/><path class="b" d="M115.967,292.557a14.109,14.109,0,0,0,3.412.387c6.8,0,9.964-2.74,9.964-8.625V272H121.98v12.155c0,1.767-.766,2.521-2.562,2.521-.544,0-1.9-.139-2.6-.211Z" transform="translate(-0.532 -8.786)"/><path class="b" d="M268.591,259.005l.9,2.56,8.15-.845-1.891-3.47Z" transform="translate(-91.43)"/><path class="b" d="M286.433,323.371l.708,2.019,6.6-.685-1.5-2.757Z" transform="translate(-102.056 -38.532)"/><path class="c" d="M116.94,392.327a.785.785,0,0,0,.888.881,1.442,1.442,0,0,0,.986-.377h.006l.473,1.394a3.059,3.059,0,0,1-1.718.468,2.243,2.243,0,0,1-2.5-2.387,2.34,2.34,0,0,1,2.648-2.45,2.831,2.831,0,0,1,1.5.358l-.486,1.418h-.013a1.439,1.439,0,0,0-.878-.292.862.862,0,0,0-.908.986" transform="translate(0 -78.976)"/><path class="c" d="M131.374,392.236a2.308,2.308,0,0,1-2.5,2.449,2.27,2.27,0,0,1-2.467-2.418,2.485,2.485,0,0,1,4.968-.031m-1.828-.009c0-.641-.219-.946-.649-.946s-.671.3-.67.98c0,.638.212.953.64.953s.68-.307.679-.987" transform="translate(-6.75 -78.953)"/><path class="c" d="M145.048,392.236a2.308,2.308,0,0,1-2.5,2.449,2.27,2.27,0,0,1-2.467-2.418,2.485,2.485,0,0,1,4.968-.031m-1.828-.009c0-.641-.219-.946-.649-.946s-.671.3-.67.98c0,.638.212.953.64.953s.68-.307.679-.987" transform="translate(-14.893 -78.953)"/><path class="c" d="M158.574,391.554c0,1.257-.843,1.862-2.294,1.862-.1,0-.2,0-.3-.009v1.177h-1.77V389.91a13.957,13.957,0,0,1,1.727-.129c1.913,0,2.637.6,2.637,1.774m-1.775.062c0-.408-.186-.718-.648-.718-.047,0-.1,0-.172.006v1.39a1.946,1.946,0,0,0,.2.011c.425,0,.623-.272.623-.69" transform="translate(-23.308 -78.93)"/><path class="c" d="M170.407,393.446v1.276h-3.732v-4.709h3.668v1.277l-1.9-.046v.537l1.6-.032v1.229l-1.6-.034v.547Z" transform="translate(-30.732 -79.069)"/><path class="c" d="M182.5,394.571v.012l-1.959-.012a7.625,7.625,0,0,1-.709-1.448h-.177v1.46h-1.77v-4.671a15.893,15.893,0,0,1,1.775-.132c1.938,0,2.646.653,2.646,1.688a1.44,1.44,0,0,1-.786,1.378,13.809,13.809,0,0,0,.98,1.726m-2.845-2.561H180a.5.5,0,0,0,.53-.535c0-.337-.222-.585-.713-.585h-.163Z" transform="translate(-37.409 -78.93)"/><path class="c" d="M192.849,394.033l-1.027-.03-.16.719H189.8l1.54-4.709h1.974l1.54,4.709H193Zm-.63-2.234-.205.991.648-.011-.215-.989q-.059-.267-.107-.546h-.021c-.028.187-.062.373-.1.557" transform="translate(-44.504 -79.069)"/><path class="c" d="M206.179,391.457l-1.359-.014v3.28h-1.77v-3.3l-1.353-.013v-1.4h4.482Z" transform="translate(-51.59 -79.069)"/><rect class="c" width="1.77" height="4.709" transform="translate(155.253 310.944)"/><path class="c" d="M225.088,389.869l-1.576,4.709h-1.868L220.013,390l1.955-.231.342,1.84c.112.47.19.868.3,1.582h.023a14.752,14.752,0,0,1,.3-1.582l.337-1.742Z" transform="translate(-62.499 -78.924)"/><path class="c" d="M234.952,394.033l-1.027-.03-.16.719H231.9l1.54-4.709h1.974l1.54,4.709H235.1Zm-.63-2.234-.205.991.648-.011-.215-.989q-.059-.267-.107-.546h-.02c-.028.187-.063.373-.1.557" transform="translate(-69.579 -79.069)"/><path class="c" d="M253.705,392.3c0,1.431-.848,2.372-2.948,2.372a12.145,12.145,0,0,1-1.673-.132v-4.633a13.651,13.651,0,0,1,1.666-.132c2.125,0,2.955.968,2.955,2.524m-1.829-.012c0-1.01-.665-1.082-1.022-1.084v2.041h0a.908.908,0,0,0,1.017-.957" transform="translate(-79.813 -78.931)"/><path class="c" d="M266.077,393.446v1.276h-3.732v-4.709h3.668v1.277l-1.9-.046v.537l1.6-.032v1.229l-1.6-.034v.547Z" transform="translate(-87.71 -79.069)"/><path class="c" d="M280.718,391.457l-1.359-.014v3.28h-1.77v-3.3l-1.353-.013v-1.4h4.483Z" transform="translate(-95.983 -79.069)"/><path class="c" d="M293.577,394.571v.012l-1.959-.012a7.6,7.6,0,0,1-.708-1.448h-.178v1.46h-1.77v-4.671a15.878,15.878,0,0,1,1.775-.132c1.939,0,2.647.653,2.647,1.688a1.441,1.441,0,0,1-.786,1.378,13.861,13.861,0,0,0,.98,1.726m-2.845-2.561h.346a.5.5,0,0,0,.53-.535c0-.337-.221-.585-.713-.585h-.163Z" transform="translate(-103.563 -78.93)"/><path class="c" d="M303.926,394.033,302.9,394l-.16.719h-1.864l1.54-4.709h1.974l1.54,4.709h-1.849ZM303.3,391.8l-.2.991.647-.011-.215-.989c-.038-.178-.075-.36-.106-.546H303.4c-.028.187-.062.373-.1.557" transform="translate(-110.658 -79.069)"/><path class="c" d="M319.02,393.238c0,.87-.761,1.44-2.778,1.44a10.71,10.71,0,0,1-1.634-.133v-4.633a10.642,10.642,0,0,1,1.656-.132c1.9,0,2.587.532,2.587,1.309a1.047,1.047,0,0,1-.664,1v.025a1.1,1.1,0,0,1,.834,1.124m-2.35-2.4a2.721,2.721,0,0,0-.293.013v.793h.282c.366,0,.547-.129.547-.378,0-.3-.243-.427-.537-.428m.554,2.268c0-.282-.235-.386-.548-.386h-.3v.835c.609,0,.847-.161.847-.449" transform="translate(-118.836 -78.93)"/><path class="c" d="M329.1,394.033l-1.026-.03-.16.719H326.05l1.54-4.709h1.974l1.54,4.709h-1.849Zm-.63-2.234-.2.991.647-.011-.215-.989c-.039-.178-.075-.36-.106-.546h-.021c-.028.187-.063.373-.1.557" transform="translate(-125.649 -79.069)"/><path class="c" d="M340.452,390.014v3.9a2.056,2.056,0,0,1-1.508,2.238l-1.03-1.112v-.013c.575-.089.768-.474.768-1.182v-3.826Z" transform="translate(-132.717 -79.07)"/><path class="c" d="M350.985,392.236a2.308,2.308,0,0,1-2.5,2.449,2.27,2.27,0,0,1-2.466-2.418,2.484,2.484,0,1,1,4.967-.031m-1.828-.009c0-.641-.219-.946-.649-.946s-.671.3-.669.98c0,.638.212.953.639.953s.68-.307.679-.987" transform="translate(-137.543 -78.953)"/><g transform="translate(260.543 292.791)"><g class="d"><rect class="e" width="0.174" height="0.254"/></g></g><path class="c" d="M431.306,274.836a1.789,1.789,0,0,0-1.578-.523l-.234.039a1.6,1.6,0,0,0-.006-.6,2.46,2.46,0,0,0,.3-.167l.816-.528a1.573,1.573,0,0,0,.449-.444l.467-.7a1.568,1.568,0,0,0-2.469-1.919l-.162.18a1.566,1.566,0,0,0-1.247-1.362,1.53,1.53,0,0,0-.155-.534l-.027-.057a.646.646,0,0,1-.29-.912l.011-.346a1.532,1.532,0,0,0-1.151-1.542l-.2-.051a1.534,1.534,0,0,0-1.131.142l-.046.025a1.542,1.542,0,0,0-.516-1.026l-.421-.371a1.547,1.547,0,0,0-1.763-.194l-.059.033a1.535,1.535,0,0,0-1.088-.663l-.235-.03a1.545,1.545,0,0,0-.487.016.133.133,0,0,0-.01-.023,1.167,1.167,0,0,0-.707-.6l-.7-.217a1.171,1.171,0,0,0-1.043.185,29.8,29.8,0,0,0-46.1,24.949h0v-.076l2.585-3.6a.49.49,0,0,1,.226-.175l3.189-1.212a.5.5,0,0,1,.611.223l1.455,2.619a.5.5,0,0,0,.593.229l3.111-1.053a.5.5,0,0,0,.271-.221l5.363-9.248a.483.483,0,0,1,.1-.126l4.091-3.555a.494.494,0,0,1,.371-.119l2.638.239a.5.5,0,0,1,.39.255l2.76,4.994a.49.49,0,0,0,.236.216,9.925,9.925,0,0,1,2.18,1.136c0,.171,1.392,3.22,1.921,4.372a.5.5,0,0,0,.643.25l1.451-.608a.5.5,0,0,1,.534.1l2.162,2.042a.5.5,0,0,0,.353.135l2.791-.063a.488.488,0,0,1,.222.047l2.541,1.194.112-9.343a.853.853,0,0,0-.646-.837h0a.53.53,0,0,0-.532.17l-2.4,2.8a1.717,1.717,0,0,1-.994.571l-2.855.523a2.03,2.03,0,0,1-.367.032l-1.953-.013a.6.6,0,1,1,.051-1.2l1.814.143a1.967,1.967,0,0,0,.7-.07l2.064-.59a1.712,1.712,0,0,0,.745-.439l1.561-1.568a.367.367,0,0,0-.494-.541l-2.409,1.709a2.4,2.4,0,0,1-1.4.441l-3.485-.022-1.13-.523a.53.53,0,0,1,.367-.992l.969.273,2.827.085a2.391,2.391,0,0,0,1.4-.4l.914-.608a.269.269,0,0,0-.207-.487l-2.187.482a1.925,1.925,0,0,1-.584.038l-2.62-.229a3.38,3.38,0,0,1-2.606-1.632l-.041-.068a.75.75,0,0,1,1.192-.9,3.378,3.378,0,0,0,2.139,1.059l1.973.2a1.947,1.947,0,0,0,.585-.031l4.164-.867a.337.337,0,1,0-.131-.661l-3.756.7a1.81,1.81,0,0,1-.974-.182l-3.319-1.66-.339-.469a.66.66,0,0,1,1.011-.843l.67.7,1.9.825a.683.683,0,0,0,.275.057h.862a.216.216,0,0,0,.107-.4l-2.808-1.6a.494.494,0,1,1,.512-.845l2.372,1.365,1.456-.027a.189.189,0,0,0,.067-.365l-2.063-.822-.967-1.085a.679.679,0,0,0-.344-.207l-.281-.068a.673.673,0,0,1,.144-1.327l.314-.007a.672.672,0,0,1,.5.208l1.469,1.54,2.934,1.3,1.013.1a.234.234,0,0,0,.144-.434l-2.937-2.063a.46.46,0,0,1-.07-.062s-.375-.39-.237-.54c.059-.065.276-.25.4-.114l.169.183a13.177,13.177,0,0,0,2.512,1.361c.1-.095-1.113-1.107-1.113-1.107a.375.375,0,0,1,.585-.459l1.538,1.524a.368.368,0,0,0,.408.076l.233-.1a.369.369,0,0,0,.045-.652l-.869-.537a.374.374,0,0,1-.106-.1l-1.028-1.439a.37.37,0,0,1-.013-.412l.061-.1a.37.37,0,0,1,.593-.044l.409.478a.37.37,0,0,0,.65-.235v-.222a.368.368,0,0,1,.322-.36l.194-.025a.369.369,0,0,1,.406.278l.318,1.287a.369.369,0,0,0,.727-.065l.1-1.6a.369.369,0,0,1,.45-.337l.651.147a.37.37,0,0,1,.279.439l-.138.634a.37.37,0,0,0,.6.365l1.43-1.167.7.216-.378,1-2.138,1.684a.371.371,0,0,0-.128.389v.008a.369.369,0,0,0,.586.191l.616-.489,1.912-.914a.37.37,0,0,0,.178-.181l.372-.817a.37.37,0,0,1,.383-.214l.236.03a.371.371,0,0,1,.322.4l-.029.29a.369.369,0,0,0,.546.36l1.019-.56a.371.371,0,0,1,.423.046l.42.37a.37.37,0,0,1,.009.546l-.7.667a.375.375,0,0,1-.2.1l-3.385.51a.788.788,0,0,0-.447.23L417.32,268.7a.4.4,0,0,0,.471.63l1.9-1.092.126-.036,2.539-.1a.366.366,0,0,0,.163-.046l2.738-1.507a.37.37,0,0,1,.272-.034l.192.05a.37.37,0,0,1,.277.37l-.011.348a.373.373,0,0,1-.168.3l-1.706,1.121a.14.14,0,0,0,.107.253l1.763-.4a.371.371,0,0,1,.417.2l.027.055a.37.37,0,0,1-.2.512l-1.6.6a.37.37,0,0,0,.191.711l1.724-.292a.363.363,0,0,0,.133-.05l.437-.27a.4.4,0,0,1,.454.65l-.664.521-5.31.578-1.16.315a.264.264,0,0,0,.053.519l3.5.21,1.44-.792,3.822-.625a.4.4,0,0,0,.232-.127l.434-.484a.4.4,0,0,1,.625.486l-.468.7a.39.39,0,0,1-.115.112l-.813.527a1.3,1.3,0,0,1-.807.2l-2.307-.181-.976.622a.181.181,0,0,0,.1.332l1.855-.052a1.235,1.235,0,0,1,.3.016l.693.125a.4.4,0,0,1-.152.788l-.8-.164a1.385,1.385,0,0,0-.46-.017l-3.44.438-1.35-.156a.164.164,0,0,0-.127.286l.432.379a1.194,1.194,0,0,0,.843.3l1.066-.05,1.9-.507a.462.462,0,1,1,.237.893l-1.528.4-1.2.017a.332.332,0,0,0,.007.664l3.908-.028a.915.915,0,0,0,.867-.652v-.015a.883.883,0,0,1,.7-.616l.985-.162a.62.62,0,0,1,.254,1.212l-.831.213a.912.912,0,0,0-.5.326l-.362.465a.912.912,0,0,1-.746.354l-5.355-.143a1.721,1.721,0,0,1-1.035-.381l-2.785-2.249a.414.414,0,0,0-.569.6c.534.6,1.771,1.976,1.827,2.089a14.832,14.832,0,0,0,2.2.768,1.968,1.968,0,0,1,.8.474l.011.01a1.939,1.939,0,0,0,1.25.542l.5.025a.7.7,0,0,0,.259-.037l1.115-.382a.68.68,0,0,1,.487,1.269l-1.148.489a.676.676,0,0,1-.465.025l-2.081-.637a1.954,1.954,0,0,1-.781-.457l-.144-.138a1.964,1.964,0,0,0-.81-.467l-1.078-.311a1.38,1.38,0,0,1-.578-.335l-2.865-2.779a.287.287,0,0,0-.488.206v3.324a1.19,1.19,0,0,0,.312.8l.131.142a1.186,1.186,0,0,1-.048,1.654,1.191,1.191,0,0,0-.359.852l-.021,12.6-1.294-.38,3.22.948.044-9.888.585-.28a.507.507,0,0,1,.182.053l2.294,1.625a.5.5,0,0,0,.31.049l1.25-.713a.5.5,0,0,1,.535.287l5.668,11.8c-.091.216-.175.435-.27.647a29.786,29.786,0,0,0,1.056-21.589l.115-.149.745-.19a1.791,1.791,0,0,0,.845-2.979" transform="translate(-152.736 -0.321)"/><path class="f" d="M385.253,333.448c.022.021.046.04.068.06v.008c-.024-.021-.045-.045-.068-.066Zm42.038-17.191,4.369,9.418a29.777,29.777,0,0,1-46.339,7.833l-.13-6.277a.5.5,0,0,0-.284-.414l-2.546-1.011a.5.5,0,0,1-.286-.444l-.019-2.687a.5.5,0,0,0-.487-.492l-1.814-.053a.5.5,0,0,1-.481-.574l.53-4.018a.5.5,0,0,0-.055-.317l-1.279-2.373a.5.5,0,0,1-.025-.427l2.507-6.166a.5.5,0,0,1,.912-.02l1.376,3a.5.5,0,0,0,.711.216l.594-.3a.5.5,0,0,1,.677.155l.472.735a.5.5,0,0,0,.848-.019l1.6-2.957a.5.5,0,0,1,.37-.244l2.718-.668a.5.5,0,0,1,.539.361l.944,4.652a.5.5,0,0,0,.3.333l.98.368a.5.5,0,0,0,.665-.39l.472-3.631a.493.493,0,0,1,.161-.3l1.757-1.558a.5.5,0,0,0,.161-.292l1.507-9.3a.5.5,0,0,1,.935-.141l1.815,3.664a.5.5,0,0,0,.115.151l.631.561a.5.5,0,0,1,.164.323l.164,1.66a.5.5,0,0,0,.988,0,.5.5,0,0,1,.949-.148l2.751,6.249a.5.5,0,0,0,.924-.037l.86-2.464a.5.5,0,0,1,.837-.17l1.228,1.356a.5.5,0,0,1,.128.35v2.069a.5.5,0,0,1-.407.472l-7.6,1.542a.255.255,0,0,0,.015.5l6.388.413a.5.5,0,0,1,.376.255l.538,1.2a.5.5,0,0,0,.351.252l6.246.437a.49.49,0,0,1,.265.154l.174.255.886,1.591a.494.494,0,0,0,.374.255h.015l3.22.948v.913l1.67.29a.5.5,0,0,1,.4.313l.535,1.561a.5.5,0,0,0,.95-.084l.756-6.725a.5.5,0,0,1,.937-.114m-6.89,7.569-6.761,2.527a.285.285,0,0,0-.007.531l1.293.522a.282.282,0,0,0,.218,0l6.586-2.814a.285.285,0,0,0-.053-.54l-1.118-.235a.283.283,0,0,0-.159.012m-8.469-.471a.256.256,0,0,0-.013.481l.913.365a.257.257,0,0,0,.173.007l5.67-1.806a.256.256,0,0,0,0-.489l-1.219-.374a.253.253,0,0,0-.158,0Zm-14.1-6.191,7.452,1.851.285.022,1.715-.121a.33.33,0,0,1,.176.037l3.422.953a.326.326,0,0,0,.244.025l4.2-1.177a.109.109,0,0,0-.023-.215l-7.5-1.1a.315.315,0,0,1-.164-.07l-.58-.949a.313.313,0,0,0-.187-.072l-5.939-.586h-.1l-3,.881a.258.258,0,0,0,0,.512m-4.874,3.951a.164.164,0,0,0,.13.163l2.07.772a.166.166,0,0,0,.2-.159l-.033-1.153a.165.165,0,0,0-.145-.161l-2.028-.569a.166.166,0,0,0-.189.156Zm-1.658,1.927a.164.164,0,0,0,.124.158l2.4,1a.166.166,0,0,0,.209-.157v-1.112a.163.163,0,0,0-.134-.159l-2.4-.842a.166.166,0,0,0-.2.16Zm12.762,8.642a.162.162,0,0,0-.091-.145l-5.287-2.6a.162.162,0,0,1-.092-.145V327a.163.163,0,0,0-.106-.152l-2.068-.794.986-.408-2.833-1.094a.166.166,0,0,0-.228.151v.832a.164.164,0,0,0,.108.152l1.659.613a.162.162,0,0,1,.108.159l-.036.823a.167.167,0,0,1-.23.144l-2.479-1a.162.162,0,0,1-.1-.15v-.65a.164.164,0,0,0-.124-.158l-3.591-1.574a.166.166,0,0,0-.209.152l-.041,1.219a.162.162,0,0,0,.105.156l8.445,4.065a.163.163,0,0,1,.1.15v.963a.163.163,0,0,0,.1.148l3.455,1.59a.163.163,0,0,1,.1.148v1.253a.162.162,0,0,0,.08.139l2.028,1.2a.167.167,0,0,0,.253-.139Zm-5.665-8.15.737-.3a.162.162,0,0,0-.015-.3l-2.48-.76a.166.166,0,0,0-.217.156V323.6a.163.163,0,0,0,.112.154l1.456.488a.164.164,0,0,1,.112.157l-.007.55a.162.162,0,0,0,.1.152l2.034.845a.166.166,0,0,0,.232-.149v-1.086a.162.162,0,0,0-.11-.153l-1.941-.685Zm6.369,4.765a.163.163,0,0,0-.108-.152l-3.5-1.292a.167.167,0,0,0-.226.157l.03.932a.163.163,0,0,0,.093.141l3.475,1.676a.167.167,0,0,0,.241-.146Zm3.712,3.368a.162.162,0,0,0-.1-.148l-2.142-.946a.166.166,0,0,0-.235.153l.061,1.926a.162.162,0,0,0,.1.144l1.029.45a.163.163,0,0,1,.1.148v1.714a.164.164,0,0,0,.09.145l.855.433a.167.167,0,0,0,.243-.145Zm3.045,1.64a.162.162,0,0,0-.1-.147l-1.239-.57a.167.167,0,0,0-.238.157l.06.961a.162.162,0,0,0,.091.135l1.179.58a.166.166,0,0,0,.242-.145Zm4.54.716-5.763-8.971a.159.159,0,0,1-.025-.086V322.6a.16.16,0,0,0-.047-.113l-.828-.83a.17.17,0,0,0-.179-.039l-.841.312a.171.171,0,0,1-.1,0l-12.857-3.726a.166.166,0,0,0-.211.157v1.492a.163.163,0,0,0,.119.156l4.657,1.617.025-.4,3.654,1.2a.161.161,0,0,1,.025.3l-1.117.527a.163.163,0,0,0-.1.146l-.014,2.281a.164.164,0,0,0,.113.155l2.37.8a.166.166,0,0,0,.221-.154V324.5a.164.164,0,0,1,.1-.149l2.023-.867.036.011v1.934a.162.162,0,0,0,.1.15l1.094.453a.163.163,0,0,1,.1.15v1.364a.162.162,0,0,0,.106.151l2.645,1.018a.162.162,0,0,1,.106.151V330.7a.163.163,0,0,0,.106.151l1.492.577a.163.163,0,0,1,.105.148l.034,1.35a.162.162,0,0,0,.1.143l2.538,1.185a.164.164,0,0,0,.213-.233m8.294-7.635-1.337-.207a.218.218,0,0,0-.116.013l-7.094,2.783a.223.223,0,0,0-.012.409l1.479.687a.223.223,0,0,0,.188,0l6.953-3.262a.223.223,0,0,0-.061-.422m-18.113-3.173-1.437-.419a.17.17,0,0,0-.121.01l-.828.4a.161.161,0,0,0,.023.3l1.247.387a.17.17,0,0,0,.108,0l1.018-.364a.162.162,0,0,0-.009-.309" transform="translate(-156.834 -24.258)"/></g></svg>